<svg width="218" height="40" fill="none" xmlns="http://www.w3.org/2000/svg"><path class="ccustom" d="M122.355 29.524h4.663V11.935h-4.663v17.589zm0-20.332h4.663V5.01h-4.663v4.182zM130.023 35.284h4.663v-7.749h.068c.994 1.509 2.606 2.503 5.074 2.503 4.526 0 7.612-3.6 7.612-9.291 0-5.486-2.983-9.292-7.646-9.292-2.4 0-4.046 1.132-5.177 2.675h-.103v-2.195h-4.491v23.349zm8.811-9.12c-2.777 0-4.251-2.092-4.251-5.28 0-3.154 1.165-5.657 4.08-5.657 2.88 0 4.045 2.331 4.045 5.657 0 3.325-1.508 5.28-3.874 5.28zM156.741 30.038c4.389 0 7.406-2.126 7.406-5.657 0-4.114-3.257-4.937-6.206-5.554-2.503-.515-4.834-.652-4.834-2.16 0-1.269 1.2-1.955 3.017-1.955 1.989 0 3.189.686 3.394 2.572h4.217c-.342-3.532-2.914-5.829-7.542-5.829-4.012 0-7.166 1.817-7.166 5.623 0 3.84 3.086 4.697 6.24 5.314 2.4.48 4.628.652 4.628 2.332 0 1.234-1.165 2.023-3.222 2.023-2.092 0-3.532-.892-3.84-2.915h-4.32c.274 3.738 3.12 6.206 8.228 6.206zM181.85 29.524V11.935h-4.663v10.149c0 2.331-1.337 3.977-3.531 3.977-1.989 0-2.914-1.131-2.914-3.189V11.935h-4.629v11.726c0 3.84 2.194 6.343 6.103 6.343 2.469 0 3.84-.926 5.04-2.537h.103v2.057h4.491zM184.866 29.524h4.663V19.307c0-2.332 1.269-3.84 3.155-3.84 1.714 0 2.708 1.028 2.708 3.017v11.04h4.663V19.307c0-2.332 1.2-3.84 3.154-3.84 1.715 0 2.709 1.028 2.709 3.017v11.04h4.663V17.695c0-3.84-2.092-6.24-5.795-6.24-2.228 0-4.08 1.166-5.28 3.086h-.068c-.857-1.851-2.64-3.086-4.869-3.086-2.434 0-4.148 1.235-5.108 2.846h-.103v-2.366h-4.492v17.589zM.824 29.524h4.663V5.01H.824v24.514zM16.888 30.038c5.452 0 9.189-4.046 9.189-9.291 0-5.246-3.737-9.292-9.189-9.292-5.451 0-9.188 4.046-9.188 9.292 0 5.245 3.737 9.291 9.188 9.291zm0-3.566c-2.88 0-4.457-2.297-4.457-5.725 0-3.429 1.577-5.76 4.457-5.76 2.846 0 4.457 2.331 4.457 5.76 0 3.428-1.61 5.725-4.457 5.725zM35.993 35.524c2.606 0 4.869-.617 6.343-1.989 1.303-1.2 2.091-2.88 2.091-5.348V11.935h-4.491v1.852h-.069c-1.063-1.475-2.674-2.332-4.868-2.332-4.457 0-7.612 3.36-7.612 8.606 0 5.314 3.84 8.4 7.749 8.4 2.228 0 3.566-.891 4.594-2.057h.103v1.92c0 2.4-1.269 3.668-3.909 3.668-2.16 0-3.154-.857-3.531-1.954h-4.629c.48 3.429 3.429 5.486 8.229 5.486zm-.069-10.8c-2.4 0-3.977-1.749-3.977-4.732 0-2.948 1.577-4.8 3.943-4.8 2.812 0 4.183 2.195 4.183 4.766 0 2.606-1.2 4.766-4.149 4.766zM55.761 30.038c5.451 0 9.189-4.046 9.189-9.291 0-5.246-3.738-9.292-9.189-9.292-5.451 0-9.189 4.046-9.189 9.292 0 5.245 3.738 9.291 9.19 9.291zm0-3.566c-2.88 0-4.457-2.297-4.457-5.725 0-3.429 1.577-5.76 4.457-5.76 2.846 0 4.457 2.331 4.457 5.76 0 3.428-1.611 5.725-4.457 5.725zM212.275 9.048c0-.79.64-1.429 1.429-1.429h2.857a1.429 1.429 0 1 1 0 2.857h-2.857c-.789 0-1.429-.64-1.429-1.428z" fill="#000"/><path class="ccustom" fill-rule="evenodd" clip-rule="evenodd" d="M93.228 0c11.045 0 20 8.954 20 20s-8.955 20-20 20c-11.046 0-20-8.954-20-20s8.954-20 20-20zm-.723 1.497c-2.282.32-4.454 2.154-6.141 5.22-.49.89-.93 1.872-1.315 2.933 2.293-.576 4.812-.916 7.456-.968V1.497zm-9.147 8.634a23.095 23.095 0 0 1 1.74-4.11c.835-1.52 1.827-2.833 2.945-3.841a18.593 18.593 0 0 0-12.636 12.636c1.009-1.118 2.321-2.11 3.841-2.946a23.09 23.09 0 0 1 4.11-1.74zm-.48 1.69c-.576 2.293-.916 4.812-.969 7.456h-7.185c.321-2.282 2.155-4.454 5.221-6.14.89-.49 1.872-.931 2.933-1.316zm.478 7.456c.06-2.885.475-5.594 1.162-7.987 2.393-.687 5.102-1.102 7.987-1.162v3.123a10.64 10.64 0 0 1-6.027 6.026h-3.122zm-1.447 1.446h-7.185c.321 2.282 2.155 4.454 5.221 6.14.89.49 1.872.931 2.933 1.316-.576-2.293-.916-4.812-.969-7.456zm2.609 7.987c-.687-2.393-1.103-5.102-1.162-7.987h3.122a10.64 10.64 0 0 1 6.027 6.026v3.123c-2.885-.06-5.594-.475-7.987-1.162zm-1.16 1.16a23.09 23.09 0 0 1-4.11-1.74c-1.52-.836-2.832-1.828-3.84-2.946A18.593 18.593 0 0 0 88.042 37.82c-1.118-1.008-2.11-2.32-2.946-3.84a23.093 23.093 0 0 1-1.739-4.11zm9.147 8.633c-2.282-.32-4.454-2.154-6.141-5.22-.49-.89-.93-1.873-1.315-2.933 2.293.576 4.812.916 7.456.968v7.185zm5.907-.683c1.118-1.008 2.11-2.32 2.946-3.84a23.086 23.086 0 0 0 1.739-4.11 23.1 23.1 0 0 0 4.11-1.74c1.52-.836 2.833-1.828 3.841-2.946A18.594 18.594 0 0 1 98.412 37.82zm2.995-7.47a20.882 20.882 0 0 1-1.316 2.933c-1.686 3.066-3.859 4.9-6.14 5.22v-7.185c2.643-.052 5.162-.392 7.456-.968zm2.17-2.171a20.798 20.798 0 0 0 2.933-1.315c3.067-1.687 4.9-3.86 5.221-6.141h-7.185c-.053 2.644-.393 5.163-.969 7.456zm-.477-7.456c-.06 2.885-.475 5.594-1.163 7.987-2.393.687-5.101 1.102-7.986 1.162v-3.12a10.641 10.641 0 0 1 6.027-6.03h3.122zm1.446-1.446h7.185c-.321-2.282-2.154-4.454-5.221-6.14-.889-.49-1.872-.931-2.933-1.316.576 2.293.916 4.812.969 7.456zm-2.609-7.987c.688 2.393 1.103 5.102 1.163 7.987h-3.121a10.641 10.641 0 0 1-6.028-6.029v-3.12c2.885.06 5.593.475 7.986 1.162zm1.16-1.16a23.1 23.1 0 0 1 4.11 1.74c1.52.836 2.833 1.828 3.841 2.946A18.594 18.594 0 0 0 98.412 2.18c1.118 1.008 2.11 2.32 2.946 3.84a23.088 23.088 0 0 1 1.739 4.11zm-9.146-8.633c2.281.32 4.454 2.154 6.14 5.22.489.89.931 1.872 1.316 2.933-2.294-.576-4.813-.916-7.456-.968V1.497z" fill="#000"/></svg>